name D:\school\WTK\thesis\model\3dpredictsim\Results\batch_windlass\Pog_s1_tmt_bCst_d05_k500_WL10_ig24.mot
datacolumns 128
datarows 4
range 0.00000000 0.03149068
endheader
time	pelvis_tilt	pelvis_list	pelvis_rotation	pelvis_tx	pelvis_ty	pelvis_tz	hip_flexion_l	hip_adduction_l	hip_rotation_l	hip_flexion_r	hip_adduction_r	hip_rotation_r	knee_angle_l	knee_angle_r	ankle_angle_l	ankle_angle_r	subtalar_angle_l	subtalar_angle_r	tmt_angle_l	tmt_angle_r	mtp_angle_l	mtp_angle_r	lumbar_extension	lumbar_bending	lumbar_rotation	arm_flex_l	arm_add_l	arm_rot_l	arm_flex_r	arm_add_r	arm_rot_r	elbow_flex_l	elbow_flex_r	pro_sup_l	pro_sup_r	glut_med1_l/activation	glut_med2_l/activation	glut_med3_l/activation	glut_min1_l/activation	glut_min2_l/activation	glut_min3_l/activation	semimem_l/activation	semiten_l/activation	bifemlh_l/activation	bifemsh_l/activation	sar_l/activation	add_long_l/activation	add_brev_l/activation	add_mag1_l/activation	add_mag2_l/activation	add_mag3_l/activation	tfl_l/activation	pect_l/activation	grac_l/activation	glut_max1_l/activation	glut_max2_l/activation	glut_max3_l/activation	iliacus_l/activation	psoas_l/activation	quad_fem_l/activation	gem_l/activation	peri_l/activation	rect_fem_l/activation	vas_med_l/activation	vas_int_l/activation	vas_lat_l/activation	med_gas_l/activation	lat_gas_l/activation	soleus_l/activation	tib_post_l/activation	flex_dig_l/activation	flex_hal_l/activation	tib_ant_l/activation	per_brev_l/activation	per_long_l/activation	per_tert_l/activation	ext_dig_l/activation	ext_hal_l/activation	ercspn_l/activation	intobl_l/activation	extobl_l/activation	glut_med1_r/activation	glut_med2_r/activation	glut_med3_r/activation	glut_min1_r/activation	glut_min2_r/activation	glut_min3_r/activation	semimem_r/activation	semiten_r/activation	bifemlh_r/activation	bifemsh_r/activation	sar_r/activation	add_long_r/activation	add_brev_r/activation	add_mag1_r/activation	add_mag2_r/activation	add_mag3_r/activation	tfl_r/activation	pect_r/activation	grac_r/activation	glut_max1_r/activation	glut_max2_r/activation	glut_max3_r/activation	iliacus_r/activation	psoas_r/activation	quad_fem_r/activation	gem_r/activation	peri_r/activation	rect_fem_r/activation	vas_med_r/activation	vas_int_r/activation	vas_lat_r/activation	med_gas_r/activation	lat_gas_r/activation	soleus_r/activation	tib_post_r/activation	flex_dig_r/activation	flex_hal_r/activation	tib_ant_r/activation	per_brev_r/activation	per_long_r/activation	per_tert_r/activation	ext_dig_r/activation	ext_hal_r/activation	ercspn_r/activation	intobl_r/activation	extobl_r/activation	
          0.00000000	         -2.91919140	         -1.41383518	          6.06875736	          0.00000000	          0.85588338	         -0.00194543	        -18.23014284	         -1.42901761	          8.82109025	         31.33374536	          3.09301847	         -0.16730842	        -10.10772498	        -19.20495201	         -2.38360511	         -3.90338445	         10.68000091	         -6.14292338	         -0.26022136	          0.06818857	         25.80160939	          0.20554270	         -0.71096694	         -0.36192921	         -1.66762589	          4.70559838	        -13.48588169	         16.01754668	         -8.59671412	        -13.64269414	          9.24530748	         32.27655445	         16.88253907	         86.51662706	         86.51662706	          0.32959555	          0.07720122	          0.05000002	          0.30349942	          0.17348449	          0.08110090	          0.05000105	          0.05000013	          0.05000010	          0.06559365	          0.08732736	          0.10220854	          0.12525942	          0.05000093	          0.05000120	          0.05000064	          0.23080363	          0.09881575	          0.05000033	          0.05000059	          0.05000041	          0.05000033	          0.29861421	          0.48602129	          0.05000003	          0.05000017	          0.05000012	          0.16749488	          0.13691209	          0.05041012	          0.08814430	          0.27382378	          0.34975873	          0.24284380	          0.18883855	          0.17598309	          0.25784895	          0.05000000	          0.05874794	          0.12823487	          0.05000010	          0.05000001	          0.05000006	          0.05000000	          0.05162674	          0.05618826	          0.05874705	          0.05874728	          0.05000008	          0.05874749	          0.05874744	          0.05000253	          0.05837236	          0.05874701	          0.05874749	          0.05000012	          0.05000029	          0.10277651	          0.22498294	          0.13238445	          0.15929876	          0.13072662	          0.05000011	          0.07315989	          0.05874767	          0.05000025	          0.07644326	          0.14083895	          0.05411102	          0.05261266	          0.28946202	          0.09528777	          0.06992761	          0.05319392	          0.17719433	          0.17643177	          0.15012570	          0.07695511	          0.06735671	          0.05874742	          0.05000000	          0.05000012	          0.05000012	          0.44805835	          0.26747153	          0.14690139	          0.46931515	          0.67348447	          0.25990132	          0.05000002	          0.11194926	          0.10880663	
          0.01049689	         -2.90639854	         -1.53674814	          6.34075240	          0.01611949	          0.85472057	         -0.00176746	        -17.95388596	         -1.74507843	          8.55596981	         30.68428665	          3.50690096	          0.13257208	        -12.16820024	        -19.47966079	         -3.19212739	         -4.36949691	         11.74533664	         -6.97137463	         -0.91030587	          0.02955487	         26.73599523	          0.33355091	         -0.50033337	         -0.11123393	         -1.72155557	          4.44174450	        -13.52053677	         16.33167349	         -9.57800931	        -13.64292792	          9.06822490	         33.18676754	         16.80458078	         86.51662706	         86.51662706	          0.28051926	          0.06570607	          0.05000039	          0.25830884	          0.14765291	          0.06902510	          0.05000146	          0.05000028	          0.05000062	          0.05582686	          0.07432457	          0.19624043	          0.32196220	          0.05875235	          0.05874794	          0.05874975	          0.19643733	          0.09529249	          0.05000195	          0.05000324	          0.05000274	          0.05000852	          0.25415098	          0.43625999	          0.05874718	          0.05001822	          0.05000012	          0.14255513	          0.11652666	          0.15455542	          0.13138760	          0.23305179	          0.29768013	          0.20668469	          0.16072076	          0.14977951	          0.21945563	          0.06893150	          0.05000048	          0.10914091	          0.05000005	          0.08731431	          0.05000037	          0.05001593	          0.05874754	          0.06902520	          0.05000003	          0.05000007	          0.11065064	          0.05000011	          0.05000009	          0.05000009	          0.05000003	          0.05000004	          0.05000010	          0.05000003	          0.05000117	          0.08747331	          0.19148342	          0.28866596	          0.22829576	          0.15594766	          0.05000043	          0.06226972	          0.05000053	          0.09998466	          0.12440782	          0.11986895	          0.05000019	          0.05000082	          0.31426813	          0.08109968	          0.05951553	          0.05874747	          0.27303803	          0.26715339	          0.23058938	          0.06902463	          0.05874760	          0.05000003	          0.05665857	          0.05874751	          0.05000282	          0.47878820	          0.22764541	          0.12502800	          0.39943501	          0.59296915	          0.22120244	          0.05000000	          0.09528017	          0.09260548	
          0.02099378	         -2.89084375	         -1.66457867	          6.58243154	          0.03242555	          0.85350434	         -0.00159956	        -17.58249037	         -2.04768727	          8.28481638	         29.81861124	          3.89292550	          0.46777462	        -14.38444883	        -19.91150762	         -4.09749282	         -4.35698790	         12.72574646	         -7.84042537	         -1.54475018	         -0.30221508	         27.30542494	          0.33417150	         -0.27611073	          0.15160562	         -1.76524140	          4.11466338	        -13.56124549	         16.58604250	        -10.54580475	        -13.64913025	          8.96006132	         34.08804757	         16.71634294	         86.51662706	         86.51662706	          0.35377372	          0.05592254	          0.05000001	          0.32928434	          0.12566762	          0.05874738	          0.05000143	          0.05000007	          0.05000004	          0.05000007	          0.06325806	          0.17396835	          0.27402269	          0.05000431	          0.05000092	          0.05000213	          0.16718920	          0.08110479	          0.05000014	          0.05000038	          0.05000025	          0.05000016	          0.21630831	          0.41524664	          0.05000002	          0.05000009	          0.05000002	          0.12132888	          0.09917603	          0.13154236	          0.11182419	          0.19835069	          0.25335597	          0.17590962	          0.13678967	          0.12747760	          0.18677902	          0.12598361	          0.14976243	          0.13570189	          0.24333271	          0.19519653	          0.12441313	          0.08040746	          0.05000011	          0.05874745	          0.26536541	          0.30561496	          0.40654216	          0.26553029	          0.15110996	          0.22285592	          0.07987380	          0.11066862	          0.08570116	          0.06902541	          0.05000047	          0.07444869	          0.16297186	          0.24568410	          0.19430300	          0.14574432	          0.05000013	          0.05874744	          0.11736279	          0.23369285	          0.19094715	          0.11343161	          0.05000361	          0.05000027	          0.26747411	          0.06902422	          0.17784802	          0.05000006	          0.23238315	          0.24236549	          0.20558497	          0.05874697	          0.05000023	          0.05616579	          0.07393444	          0.05000022	          0.05000016	          0.54692250	          0.19374933	          0.10641151	          0.36338483	          0.62421778	          0.30400748	          0.05000009	          0.08393893	          0.07881665	
          0.03149068	         -2.87497493	         -1.79265073	          6.78991488	          0.04862835	          0.85235011	         -0.00140671	        -17.07277950	         -2.33032291	          8.00688299	         28.88686898	          4.27711554	          0.79264981	        -16.80322567	        -20.27376551	         -5.05418381	         -4.25921853	         13.60448187	         -8.74551017	         -2.02411088	         -0.28989075	         27.16452305	          0.35405888	         -0.06579032	          0.41692619	         -1.79977472	          3.77880642	        -13.60381036	         16.79918596	        -11.43268040	        -13.65410773	          8.94486750	         34.93421509	         16.57469269	         86.51662706	         86.51662706	          0.30109732	          0.05000002	          0.05000001	          0.28025439	          0.10695592	          0.05000008	          0.05000273	          0.05000026	          0.05000027	          0.05000011	          0.05383934	          0.22182592	          0.25245793	          0.05000021	          0.05000083	          0.10696966	          0.14229510	          0.06902864	          0.05000022	          0.05000034	          0.05000023	          0.05000016	          0.18410031	          0.35341727	          0.05000002	          0.05000013	          0.05000006	          0.10326318	          0.08440891	          0.11195592	          0.09517376	          0.16881654	          0.21563161	          0.14971691	          0.11642191	          0.10849645	          0.15896797	          0.18097326	          0.12746308	          0.11549609	          0.25441111	          0.23259688	          0.10809586	          0.10819566	          0.05000000	          0.05000005	          0.41085015	          0.47443547	          0.52528804	          0.22599337	          0.32104587	          0.35203013	          0.06798076	          0.09541866	          0.07294077	          0.05874765	          0.05000011	          0.06336340	          0.13870559	          0.20910239	          0.23675175	          0.18375791	          0.05000009	          0.05000071	          0.09988773	          0.32752149	          0.25013934	          0.18592530	          0.05000001	          0.05000001	          0.22764772	          0.05874702	          0.15136685	          0.05000001	          0.33117887	          0.33607419	          0.28637069	          0.05000000	          0.05000001	          0.05000000	          0.17107105	          0.05001227	          0.05000065	          0.62507847	          0.16490032	          0.09056698	          0.30927740	          0.59522767	          0.40916973	          0.07110587	          0.07144054	          0.06708096	
